<svg id="Calque_1" xmlns="http://www.w3.org/2000/svg" width="75" height="90">
  <g id="Chauffeur" stroke="#000100" stroke-miterlimit="10">
    <path fill="#D462A0" d="M31.2 71.9c0 5.3-4 9.7-8.9 9.7H9.5c-4.9 0-8.9-4.3-8.9-9.7V38c0-5.3 4-9.7 8.9-9.7h12.9c4.9 0 8.9 4.3 8.9 9.7v33.9z"/>
    <ellipse fill="#000100" cx="15.3" cy="15" rx="13.2" ry="14.4"/>
    <path fill="#D462A0" d="M40.2 51.9c-1.1 2.5-3.4 3.7-5.1 2.8L14.3 43.4c-1.7-.9-2.1-3.6-1-6.1 1.1-2.5 3.4-3.7 5.1-2.8l20.8 11.3c1.7.9 2.1 3.6 1 6.1z"/>
    <path fill="#000100" d="M64.8 45.9c0 2.6-1.6 5-3.6 5.3L37 54.9c-1.9.3-3.5-1.6-3.5-4.2s1.6-5 3.6-5.3l24.2-3.7c2-.4 3.5 1.5 3.5 4.2z"/>
    <path fill="#424A99" d="M47.9 76.6c0 2.7-1.8 5-4 5H16.1c-2.2 0-4-2.2-4-5 0-2.7 1.8-5 4-5h27.8c2.2.1 4 2.3 4 5z"/>
    <path fill="#000100" d="M74.3 85.5c-.7 2.6-2.9 4.3-5.1 3.7l-26.8-7.8c-2.2-.6-3.4-3.3-2.7-5.9.7-2.6 2.9-4.3 5.1-3.7l26.8 7.8c2.1.6 3.3 3.3 2.7 5.9z"/>
    <path fill="#424A99" d="M.6 60.5h30.7v21.1H.6z"/>
  </g>
</svg>
